<svg xmlns="http://www.w3.org/2000/svg" width="55.598" height="47.508" viewBox="0 0 55.598 47.508">
  <g id="Alert" transform="translate(2614 -3980.38)">
    <g id="Alert_icon_2" data-name="Alert icon – 2" transform="translate(-2614 3980.38)">
      <path id="Path_2175" data-name="Path 2175" d="M-2614,4025.4v-.6a8.841,8.841,0,0,1,.492-1.259q9.33-16.2,18.683-32.391,2.5-4.329,5-8.656a4.125,4.125,0,0,1,4.385-2.034,4.156,4.156,0,0,1,2.941,2.153q11.584,20.084,23.174,40.165a6,6,0,0,1,.924,2.022v.6c-.016.059-.035.118-.046.177a2.7,2.7,0,0,1-.518,1.2,2.822,2.822,0,0,1-2.376,1.116q-24.861,0-49.721,0h-.185a2.788,2.788,0,0,1-2.641-2.023C-2613.933,4025.711-2613.963,4025.553-2614,4025.4Zm25.483-22.4q0,3.174,0,6.348a2.314,2.314,0,0,0,2.3,2.324,2.314,2.314,0,0,0,2.327-2.325q.005-6.359,0-12.718a2.511,2.511,0,0,0-.12-.748,2.306,2.306,0,0,0-2.562-1.559,2.317,2.317,0,0,0-1.944,2.286Q-2588.521,3999.8-2588.517,4003Zm2.309,12.151a2.306,2.306,0,0,0-2.309,2.312,2.321,2.321,0,0,0,2.31,2.319,2.331,2.331,0,0,0,2.323-2.333A2.311,2.311,0,0,0-2586.208,4015.146Z" transform="translate(2614 -3980.38)" fill="#f8ac10"/>
    </g>
  </g>
</svg>
