<svg xmlns="http://www.w3.org/2000/svg" width="26.113" height="24.05" viewBox="0 0 26.113 24.05">
  <g id="Group_16677" data-name="Group 16677" transform="translate(0)">
    <g id="Group_16679" data-name="Group 16679">
      <path id="Path_10202" data-name="Path 10202" d="M26.112,24.05H0V0H26.112ZM3.595,23.994c.141-.094.224-.147.3-.2q3.479-2.42,6.955-4.843a.981.981,0,0,1,.6-.19q5.432.008,10.863,0a3.565,3.565,0,0,0,3.73-3.626c.015-3.811.008-7.621,0-11.432A3.523,3.523,0,0,0,24.89,1.025,3.681,3.681,0,0,0,22.263.069q-7.192.01-14.385,0C6.5.072,5.115.064,3.733.074A3.567,3.567,0,0,0,.038,3.785c0,.659,0,1.318,0,1.978C.04,8.941.024,12.12.049,15.3a3.515,3.515,0,0,0,2.907,3.4c.2.037.407.055.639.085Z" transform="translate(0.001)" fill="#fff"/>
      <path id="Path_10203" data-name="Path 10203" d="M3.859,24.5V19.288c-.231-.031-.437-.048-.639-.085A3.515,3.515,0,0,1,.313,15.8C.288,12.625.3,9.447.3,6.268.3,5.609.3,4.95.3,4.29A3.567,3.567,0,0,1,4,.579c1.381-.01,2.763,0,4.145,0q7.192,0,14.385,0a3.681,3.681,0,0,1,2.627.956A3.523,3.523,0,0,1,26.31,4.209c.006,3.811.013,7.621,0,11.432a3.565,3.565,0,0,1-3.73,3.626q-5.432.008-10.863,0a.982.982,0,0,0-.6.19Q7.644,21.882,4.163,24.3c-.08.056-.163.109-.3.2m1.527-2.917c.145-.1.227-.152.308-.208,1.66-1.154,3.316-2.313,4.983-3.458a1.021,1.021,0,0,1,.544-.168c3.775-.01,7.55-.023,11.324,0A2.143,2.143,0,0,0,24.793,15.5c-.016-3.72-.005-7.441-.006-11.161a2.213,2.213,0,0,0-.43-1.421,2.16,2.16,0,0,0-1.83-.811q-9.225.009-18.449,0c-.09,0-.181,0-.271.007a2.015,2.015,0,0,0-1.978,2.06c-.011,3.838,0,7.676,0,11.514a1.976,1.976,0,0,0,.414,1.235,2.057,2.057,0,0,0,1.742.821c.458,0,.915,0,1.4,0Z" transform="translate(-0.263 -0.505)" fill="#aeaeae"/>
      <path id="Path_10204" data-name="Path 10204" d="M16.6,32.825V28.984c-.488,0-.946,0-1.4,0a2.057,2.057,0,0,1-1.742-.821,1.976,1.976,0,0,1-.414-1.235c0-3.838-.008-7.676,0-11.514a2.016,2.016,0,0,1,1.978-2.06c.09-.006.18-.007.271-.007q9.225,0,18.449,0a2.159,2.159,0,0,1,1.83.811A2.213,2.213,0,0,1,36,15.577c0,3.72-.01,7.441.006,11.161a2.143,2.143,0,0,1-2.249,2.255c-3.775-.025-7.549-.011-11.324,0a1.021,1.021,0,0,0-.544.168c-1.666,1.145-3.323,2.3-4.983,3.458-.081.056-.163.11-.308.208m1.877-14.112H30.537V17.23H18.477Zm12.064,1.763H18.489v1.493H30.542Zm0,3.249H18.487v1.488H30.544Z" transform="translate(-11.478 -11.748)" fill="#fff"/>
      <rect id="Rectangle_8206" data-name="Rectangle 8206" width="12.059" height="1.483" transform="translate(7 5.482)" fill="#aeaeae"/>
      <rect id="Rectangle_8207" data-name="Rectangle 8207" width="12.053" height="1.493" transform="translate(7.011 8.728)" fill="#aeaeae"/>
      <rect id="Rectangle_8208" data-name="Rectangle 8208" width="12.057" height="1.488" transform="translate(7.01 11.977)" fill="#aeaeae"/>
    </g>
  </g>
</svg>
