<svg id="Component_1486_1" data-name="Component 1486 – 1" xmlns="http://www.w3.org/2000/svg" width="32" height="32" viewBox="0 0 32 32">
  <g id="Group_16000" data-name="Group 16000" transform="translate(-271 -273)">
    <rect id="Rectangle_8050" data-name="Rectangle 8050" width="32" height="32" transform="translate(271 273)" fill="none"/>
  </g>
  <g id="copy" transform="translate(7 6)">
    <path id="Path_9572" data-name="Path 9572" d="M12.632,122.406H2.278A2.28,2.28,0,0,1,0,120.128V108.946a2.28,2.28,0,0,1,2.278-2.278h.414a.621.621,0,0,1,0,1.242H2.278a1.037,1.037,0,0,0-1.035,1.035v11.182a1.037,1.037,0,0,0,1.035,1.035H12.632a1.037,1.037,0,0,0,1.035-1.035v-.414a.621.621,0,1,1,1.242,0v.414A2.28,2.28,0,0,1,12.632,122.406Zm0,0" transform="translate(0 -102.526)" fill="#4a6df4"/>
    <path id="Path_9573" data-name="Path 9573" d="M138.975,14.91h-8.7A2.28,2.28,0,0,1,128,12.632V2.278A2.28,2.28,0,0,1,130.278,0h8.7a2.28,2.28,0,0,1,2.278,2.278V12.632A2.28,2.28,0,0,1,138.975,14.91Zm-8.7-13.667a1.037,1.037,0,0,0-1.035,1.035V12.632a1.037,1.037,0,0,0,1.035,1.035h8.7a1.037,1.037,0,0,0,1.035-1.035V2.278a1.037,1.037,0,0,0-1.035-1.035Zm0,0" transform="translate(-123.03)" fill="#4a6df4"/>
  </g>
</svg>
