<svg xmlns="http://www.w3.org/2000/svg" width="31.928" height="31.928" viewBox="0 0 31.928 31.928">
  <g id="Notification" transform="translate(0.03 0.029)">
    <g id="Group_16745" data-name="Group 16745" transform="translate(-0.869 -0.869)">
      <path id="Path_10232" data-name="Path 10232" d="M0,37.748a13.734,13.734,0,0,1,1.089-1.336A9.271,9.271,0,0,0,4,29.505a28.9,28.9,0,0,1,.277-5.453A8.747,8.747,0,0,1,10.637,17.2c.706-.228,1.376-.283,1.622.571.219.76-.3,1.077-.967,1.315-3.6,1.273-5.277,3.706-5.314,7.53a48.632,48.632,0,0,1-.215,5.091,10.018,10.018,0,0,1-2.931,5.783L1.79,38.59H24.669c-.292-.379-.523-.668-.743-.966-.688-.93-1.4-1.843-2.046-2.8-.387-.575-.459-1.306.3-1.544a1.753,1.753,0,0,1,1.378.586c.812.873,1.456,1.9,2.25,2.794a2.349,2.349,0,0,1,.6,2.619,2.266,2.266,0,0,1-2.257,1.458c-1.951.006-3.9,0-5.942,0a5.676,5.676,0,0,1-3.745,3.993H12.223A5.578,5.578,0,0,1,8.4,40.741c-1.682,0-3.345-.07-5,.021A3.443,3.443,0,0,1,0,39.244v-1.5M10.55,40.8a2.829,2.829,0,0,0,2.915,1.909A2.635,2.635,0,0,0,16,40.8Z" transform="translate(0.84 -11.964)" fill="#7c7c7c"/>
      <g id="Group_16744" data-name="Group 16744" transform="translate(-1362.441 -249.953)">
        <g id="Group_16678" data-name="Group 16678" transform="translate(1377.941 250.793)">
          <circle id="Ellipse_4" data-name="Ellipse 4" cx="8.634" cy="8.634" r="8.634" fill="#e93323"/>
          <path id="Path_30" data-name="Path 30" d="M671.948,335.623v-1a5.353,5.353,0,0,0,1.966-.455,2.275,2.275,0,0,0,.831-1.524h1.026V342.95h-1.388v-7.328Z" transform="translate(-665.845 -329.383)" fill="#fff"/>
        </g>
      </g>
    </g>
  </g>
</svg>
