<svg xmlns="http://www.w3.org/2000/svg" width="21.968" height="21.965" viewBox="0 0 21.968 21.965">
  <g id="Settings" transform="translate(0 -0.034)">
    <g id="Group_16755" data-name="Group 16755">
      <path id="Path_10245" data-name="Path 10245" d="M0,10.059a3.93,3.93,0,0,1,.2-.466,1.354,1.354,0,0,1,.989-.646c.436-.075.874-.139,1.308-.225a.329.329,0,0,0,.2-.17q.267-.606.5-1.226a.305.305,0,0,0-.029-.243C2.927,6.717,2.664,6.36,2.409,6a1.371,1.371,0,0,1,.166-1.913q.6-.608,1.215-1.211a1.372,1.372,0,0,1,1.931-.148c.337.242.675.481,1.006.729a.263.263,0,0,0,.308.033C7.418,3.314,7.8,3.147,8.2,3A.288.288,0,0,0,8.4,2.741c.081-.493.154-.988.262-1.475A1.291,1.291,0,0,1,9.893.247c.7-.021,1.4-.023,2.1,0a1.332,1.332,0,0,1,1.259,1.17c.076.436.15.872.217,1.31a.252.252,0,0,0,.187.224q.629.241,1.245.512a.251.251,0,0,0,.289-.03c.357-.262.719-.518,1.082-.771A1.349,1.349,0,0,1,18.1,2.8q.662.642,1.3,1.3a1.349,1.349,0,0,1,.137,1.832c-.249.357-.5.713-.763,1.061a.282.282,0,0,0-.028.329q.251.567.473,1.146a.29.29,0,0,0,.256.211c.486.078.974.15,1.454.257a1.285,1.285,0,0,1,1.018,1.246q.022,1.007,0,2.015a1.35,1.35,0,0,1-1.175,1.325c-.443.077-.889.14-1.33.225a.331.331,0,0,0-.21.164q-.271.6-.507,1.224a.329.329,0,0,0,.031.261c.243.362.5.712.753,1.068a1.363,1.363,0,0,1-.148,1.882q-.616.627-1.243,1.243a1.364,1.364,0,0,1-1.9.154c-.35-.247-.7-.493-1.045-.749a.263.263,0,0,0-.308-.026c-.378.168-.759.328-1.146.474a.3.3,0,0,0-.223.269q-.1.656-.218,1.309a1.348,1.348,0,0,1-1.016,1.125.648.648,0,0,0-.094.043H9.78a.211.211,0,0,0-.053-.034,1.359,1.359,0,0,1-1.073-1.214c-.064-.416-.142-.829-.205-1.245a.271.271,0,0,0-.195-.244c-.386-.147-.763-.317-1.149-.463a.33.33,0,0,0-.262.024c-.373.25-.735.518-1.1.775a1.352,1.352,0,0,1-1.861-.154q-.635-.622-1.258-1.257a1.358,1.358,0,0,1-.147-1.879c.243-.344.486-.688.739-1.024a.277.277,0,0,0,.033-.327c-.172-.375-.337-.755-.482-1.141a.3.3,0,0,0-.27-.219c-.437-.069-.876-.129-1.307-.226A2.183,2.183,0,0,1,.543,13.3,1.434,1.434,0,0,1,0,12.46v-2.4M18.606,5.094a1.372,1.372,0,0,0-.115-.156c-.408-.411-.821-.817-1.225-1.231a.205.205,0,0,0-.315-.02c-.467.341-.941.674-1.407,1.017a.69.69,0,0,1-.818.057A7.6,7.6,0,0,0,12.868,4a.661.661,0,0,1-.522-.581c-.092-.578-.2-1.154-.289-1.732a.214.214,0,0,0-.253-.215c-.558.007-1.115.01-1.673,0-.19,0-.267.062-.295.245-.084.543-.191,1.083-.268,1.627a.817.817,0,0,1-.609.711c-.575.207-1.14.448-1.692.712a.783.783,0,0,1-.9-.055c-.447-.333-.909-.645-1.358-.975a.231.231,0,0,0-.363.024q-.58.6-1.183,1.182a.235.235,0,0,0-.028.366c.334.455.649.924.987,1.376a.784.784,0,0,1,.063.894,16.614,16.614,0,0,0-.693,1.7.8.8,0,0,1-.707.61c-.544.078-1.085.18-1.628.265-.164.026-.226.1-.223.271q.014.836,0,1.672c0,.181.064.252.238.279.564.088,1.125.2,1.69.282a.771.771,0,0,1,.647.568c.222.585.461,1.165.728,1.731a.773.773,0,0,1-.056.877c-.336.454-.653.921-.987,1.376a.227.227,0,0,0,.031.35c.4.389.795.782,1.182,1.183a.233.233,0,0,0,.365.03c.454-.335.922-.651,1.376-.987a.793.793,0,0,1,.9-.063c.548.256,1.11.485,1.68.688a.761.761,0,0,1,.57.644c.086.55.186,1.1.267,1.649.028.19.1.27.3.265q.814-.019,1.63,0c.2,0,.275-.069.3-.262.085-.565.191-1.126.28-1.69a.674.674,0,0,1,.537-.593,7.141,7.141,0,0,0,1.775-.735.711.711,0,0,1,.855.055c.454.334.922.652,1.376.987a.233.233,0,0,0,.365-.027c.382-.4.77-.787,1.168-1.167a.255.255,0,0,0,.026-.4c-.327-.442-.633-.9-.962-1.341a.785.785,0,0,1-.061-.9,18.179,18.179,0,0,0,.713-1.714.785.785,0,0,1,.678-.588c.551-.082,1.1-.182,1.649-.266a.239.239,0,0,0,.24-.281c-.008-.543-.011-1.087,0-1.63,0-.207-.066-.29-.27-.319-.544-.078-1.084-.183-1.628-.265a.782.782,0,0,1-.669-.6,17.13,17.13,0,0,0-.705-1.694.781.781,0,0,1,.05-.9c.333-.447.649-.906.971-1.361.04-.057.073-.119.118-.192" transform="translate(0 -0.196)" fill="#7c7c7c"/>
      <path id="Path_10248" data-name="Path 10248" d="M46.694,51.657a4.735,4.735,0,1,1,4.74-4.726,4.735,4.735,0,0,1-4.74,4.726M50.2,46.9a3.5,3.5,0,1,0-3.488,3.523A3.515,3.515,0,0,0,50.2,46.9" transform="translate(-35.713 -35.904)" fill="#7c7c7c"/>
    </g>
  </g>
</svg>
